<svg xmlns="http://www.w3.org/2000/svg" viewBox="0 0 74.02 74.02"><defs><style>.cls-1,.cls-2,.cls-3,.cls-4,.cls-5,.cls-6,.cls-7,.cls-8{fill:#fff;}.cls-2{opacity:0.45;}.cls-3{opacity:0.8;}.cls-4{opacity:0.2;}.cls-5{opacity:0.7;}.cls-6{opacity:0.1;}.cls-7{opacity:0.3;}.cls-8{opacity:0.95;}</style></defs><title>Ресурс 3</title><g id="Слой_2" data-name="Слой 2"><g id="Слой_1-2" data-name="Слой 1"><path class="cls-1" d="M38.71,14.76V3.45L35.27,0V10.92"/><path class="cls-2" d="M38.71,74V62.71l-3.44-3.45V70.18"/><path class="cls-3" d="M14.76,35.4H3.45L0,38.85H10.92"/><path class="cls-4" d="M74,35.4H62.71l-3.45,3.45H70.18"/><path class="cls-5" d="M20.06,51.64l-8,8v4.87l7.72-7.72"/><path class="cls-6" d="M62,9.74l-8,8v4.88l7.72-7.72"/><path class="cls-7" d="M51.52,54.08l8,8H64.4l-7.72-7.73"/><path class="cls-8" d="M9.62,12.17l8,8H22.5l-7.72-7.72"/><path class="cls-1" d="M29.82,16,25.33,5.64,20.8,3.85l4.33,10"/><path class="cls-2" d="M53.34,70.42,48.85,60l-4.53-1.8,4.33,10"/><path class="cls-3" d="M16,44.48,5.65,49,3.85,53.5l10-4.33"/><path class="cls-4" d="M70.42,21,60,25.45,58.24,30l10-4.33"/><path class="cls-5" d="M27.34,57.28,23.17,67.8l1.94,4.47,4-10.15"/><path class="cls-6" d="M49.16,2.19,45,12.7l1.93,4.48L51,7"/><path class="cls-7" d="M57.18,47,67.7,51.2l4.48-1.94L62,45.24"/><path class="cls-8" d="M2.09,25.2l10.52,4.17,4.48-1.94-10.16-4"/></g></g></svg>